<svg xmlns="http://www.w3.org/2000/svg" width="106" height="22" fill="none" viewBox="0 0 106 22"><path fill="#ffffff" d="M5.642 9.45c-.042.504-.126 4.466-.126 5.894 0 1.582.336 3.262 2.072 3.262.882 0 1.554-.56 1.946-.966.21-.224.322-.336.504-.336.168 0 .378.126.378.574 0 .266-.098.63-.308.994-.518.994-1.792 2.408-4.172 2.408-2.52 0-3.808-1.68-3.808-5.026 0-1.274.182-4.9.182-6.286 0-.532-.126-.784-.546-.84C.742 9.002.14 8.932.14 8.386c0-.42.154-.784.63-1.008.84-.378 1.694-.854 2.31-1.526C4.144 4.662 4.228 3.15 5.026 3.15c.448 0 .742.378.742 1.092 0 .546-.14 2.716-.14 2.814 0 .07.014.112.126.112.238 0 2.982-.14 3.304-.14.546 0 .896.154.896.812 0 .476-.266 1.092-.504 1.344a.684.684 0 0 1-.476.168c-.294 0-2.744-.14-3.108-.14-.084 0-.21.028-.224.238Zm14.53 1.708c0-1.568-1.107-2.758-2.577-2.758-1.974 0-3.416 1.988-3.416 4.06 0 .434.14.7.476.7 1.064 0 3.962-.364 5.04-1.106.322-.224.476-.504.476-.896Zm2.141 2.226c-1.666 1.008-5.376 1.358-7.406 1.428-.266.014-.364.07-.364.266 0 1.19 1.092 3.514 3.99 3.514 2.142 0 3.416-1.05 4.158-2.254.154-.196.35-.364.518-.364.224 0 .364.224.364.728 0 1.694-2.016 4.606-6.006 4.606-4.144 0-6.804-2.926-6.804-7.042s2.856-7.672 7.154-7.672c3.542 0 5.432 2.534 5.432 5.068 0 .868-.42 1.372-1.036 1.722Zm11.572-2.226c0-1.568-1.106-2.758-2.576-2.758-1.974 0-3.416 1.988-3.416 4.06 0 .434.14.7.476.7 1.064 0 3.962-.364 5.04-1.106.322-.224.476-.504.476-.896Zm2.142 2.226c-1.666 1.008-5.376 1.358-7.406 1.428-.266.014-.364.07-.364.266 0 1.19 1.092 3.514 3.99 3.514 2.142 0 3.416-1.05 4.158-2.254.154-.196.35-.364.518-.364.224 0 .364.224.364.728 0 1.694-2.016 4.606-6.006 4.606-4.144 0-6.804-2.926-6.804-7.042s2.856-7.672 7.154-7.672c3.542 0 5.432 2.534 5.432 5.068 0 .868-.42 1.372-1.036 1.722Zm16.53-1.288c0 2.576-.393 4.97-.393 5.894 0 .546.224 1.106.658 1.428.518.336.952.42.952.952 0 .42-.294.7-1.05.7-.63 0-1.12-.07-1.89-.07-.854 0-1.246.07-1.946.07-.546 0-.728-.308-.728-.658 0-.448.224-.924.322-1.19.266-.826.616-3.444.616-6.188 0-2.758-1.064-4.074-2.842-4.074-1.526 0-3.192 1.498-3.192 2.912v5.782c0 .966.168 1.358.588 1.722.406.364.868.448.868.994 0 .406-.224.7-.98.7S42.168 21 41.454 21c-.826 0-1.484.07-2.394.07-.672 0-.868-.308-.868-.658 0-.532.49-.77.756-.994.686-.616.798-1.218.798-1.932V10.5c0-.728-.462-1.008-.952-1.19-.294-.14-.546-.322-.546-.658 0-.616.728-.728 1.638-1.12 1.162-.504 1.61-.812 2.072-.812.434 0 .686.182.826.784.14.658.196 1.372.434 1.372.294 0 2.016-2.282 4.746-2.282 2.968 0 4.592 1.904 4.592 5.502Zm3.706 5.39V4.298c0-.644-.448-.966-.938-1.148-.294-.154-.574-.322-.574-.658 0-.588.714-.714 1.624-1.078C57.69.896 58.363.42 58.909.42c.504 0 .798.266.798.854 0 .686-.252 3.024-.252 7.182 0 .448.098.546.21.546.28 0 1.918-2.408 4.83-2.408 2.954 0 4.578 1.904 4.578 5.502 0 2.576-.392 4.97-.392 5.894 0 .546.224 1.106.658 1.428.518.336.952.42.952.952 0 .42-.28.7-1.05.7-.63 0-1.106-.07-1.89-.07-.854 0-1.246.07-1.946.07-.546 0-.728-.308-.728-.658 0-.448.238-.924.322-1.19.266-.826.616-3.444.616-6.188 0-2.758-1.064-4.074-2.842-4.074-1.526 0-3.192 1.498-3.192 2.912v5.782c0 .966.168 1.358.588 1.722.406.364.868.448.868.994 0 .406-.224.7-.98.7S58.74 21 57.97 21c-.868 0-1.232.07-2.394.07-.672 0-.868-.308-.868-.658 0-.532.49-.77.756-.994.686-.616.798-1.218.798-1.932ZM72.177 3.57c0-1.358 1.344-2.758 2.744-2.758.994 0 1.778.644 1.778 1.666 0 1.4-1.47 2.534-2.954 2.534-1.05 0-1.568-.616-1.568-1.442Zm4.074 3.892c0 .728-.14 1.988-.14 4.732v5.46c0 .966.252 1.358.672 1.722.392.364.854.448.854.994 0 .406-.224.7-.98.7S75.27 21 74.5 21c-.868 0-1.232.07-2.394.07-.672 0-.868-.308-.868-.658 0-.532.49-.77.756-.994.686-.616.798-1.218.798-1.932v-6.692c0-.77-.406-1.19-.91-1.4-.294-.168-.616-.364-.616-.714 0-.658.728-.714 1.638-1.078 1.316-.532 2.072-1.008 2.548-1.008.532 0 .798.266.798.868Zm14.51 2.828c-.853 2.086-2.45 6.594-2.673 7.168-.462 1.162-.798 2.156-1.428 2.912-.378.448-1.288.812-1.904.812-.798 0-.952-.434-1.316-1.358l-3.038-7.518c-.574-1.414-1.26-3.066-1.988-3.668-.35-.322-.7-.602-.7-1.092 0-.434.28-.728.826-.728.7 0 1.288.07 2.002.07.686 0 1.624-.07 2.352-.07.546 0 .91.126.91.798 0 .49-.826.798-.826 1.596 0 .532.252 1.344 1.302 4.032.924 2.366 1.512 3.906 1.708 3.906.266 0 .91-1.806 1.75-4.452.714-2.17.812-2.814.812-3.206 0-1.12-1.064-1.288-1.064-1.96 0-.462.308-.714.714-.714.532 0 1.456.07 1.932.07.56 0 1.246-.07 1.624-.07.574 0 .714.294.714.644 0 .896-.882.7-1.708 2.828Zm11.254.868c0-1.568-1.106-2.758-2.576-2.758-1.974 0-3.416 1.988-3.416 4.06 0 .434.14.7.476.7 1.064 0 3.962-.364 5.04-1.106.322-.224.476-.504.476-.896Zm2.142 2.226c-1.666 1.008-5.376 1.358-7.406 1.428-.267.014-.365.07-.365.266 0 1.19 1.093 3.514 3.991 3.514 2.142 0 3.416-1.05 4.158-2.254.154-.196.35-.364.518-.364.224 0 .364.224.364.728 0 1.694-2.016 4.606-6.007 4.606-4.144 0-6.803-2.926-6.803-7.042s2.856-7.672 7.153-7.672c3.543 0 5.433 2.534 5.433 5.068 0 .868-.42 1.372-1.036 1.722Z"/></svg>