<svg width="300" height="440" viewBox="0 0 300 440" fill="none" xmlns="http://www.w3.org/2000/svg">
<path d="M300 146.664C300 227.601 232.943 293.33 150.37 293.33H149.983V146.664H300Z" fill="#1C1C61"/>
<path d="M300 440V293.334H150.018V440H300Z" fill="white"/>
<path d="M149.982 293.33V146.664H-0.000106812V293.33H149.982Z" fill="#FC6243"/>
<path d="M150.017 440H0.0352631V293.334H0.422256C82.9951 293.334 150.053 359.063 150.053 440H150.017Z" fill="#E9A650" fill-opacity="0.5"/>
<path d="M299.966 0L299.966 146.666H149.984C149.984 65.729 217.041 0 299.614 0L299.966 0Z" fill="#3F6FD5"/>
<path d="M281.529 88.0736C281.529 88.0736 263.797 89.453 250.674 101.937C239.029 112.972 238.185 132.698 238.185 132.698C238.185 132.698 236.848 111.317 223.76 100.868C210.25 90.0737 194.453 89.0737 194.453 89.0737C194.453 89.0737 219.01 83.7974 227.419 70.5206C235.827 57.2437 236.918 42.8978 236.918 42.8978C236.918 42.8978 240.26 64.2787 253.067 75.3485C266.225 86.7287 281.565 88.0736 281.565 88.0736H281.529Z" fill="white"/>
<path d="M188.719 382.305L188.719 146.253H176.018V382.305H188.719Z" fill="white"/>
<path d="M232.099 382.305L232.099 146.253H219.398V382.305H232.099Z" fill="white"/>
<path d="M274.599 382.305V146.253H261.899V382.305H274.599Z" fill="white"/>
<path d="M132.357 191.39C132.357 191.39 122.26 192.183 114.801 199.253C108.152 205.529 107.694 216.771 107.694 216.771C107.694 216.771 106.92 204.598 99.4618 198.667C91.7921 192.528 82.7854 191.942 82.7854 191.942C82.7854 191.942 96.7528 188.942 101.538 181.389C106.322 173.837 106.92 165.664 106.92 165.664C106.92 165.664 108.82 177.838 116.103 184.148C123.597 190.632 132.322 191.39 132.322 191.39H132.357Z" fill="white"/>
<path d="M132.357 252.986C132.357 252.986 122.26 253.779 114.801 260.848C108.152 267.125 107.694 278.367 107.694 278.367C107.694 278.367 106.92 266.194 99.4618 260.262C91.7921 254.124 82.7854 253.538 82.7854 253.538C82.7854 253.538 96.7528 250.537 101.538 242.985C106.322 235.433 106.92 227.26 106.92 227.26C106.92 227.26 108.82 239.399 116.103 245.744C123.597 252.227 132.322 252.986 132.322 252.986H132.357Z" fill="white"/>
<path d="M65.9317 191.39C65.9317 191.39 55.8344 192.183 48.3757 199.253C41.7263 205.529 41.2689 216.771 41.2689 216.771C41.2689 216.771 40.4949 204.598 33.0362 198.667C25.3665 192.528 16.3599 191.942 16.3599 191.942C16.3599 191.942 30.3272 188.942 35.112 181.389C39.8968 173.837 40.4949 165.664 40.4949 165.664C40.4949 165.664 42.3947 177.838 49.6775 184.148C57.1713 190.632 65.8965 191.39 65.8965 191.39H65.9317Z" fill="white"/>
<path d="M65.9317 252.986C65.9317 252.986 55.8344 253.779 48.3757 260.848C41.7263 267.125 41.2689 278.367 41.2689 278.367C41.2689 278.367 40.4949 266.194 33.0362 260.262C25.3665 254.124 16.3599 253.538 16.3599 253.538C16.3599 253.538 30.3272 250.537 35.112 242.985C39.8968 235.433 40.4949 227.26 40.4949 227.26C40.4949 227.26 42.3947 239.399 49.6775 245.744C57.1713 252.227 65.8965 252.986 65.8965 252.986H65.9317Z" fill="white"/>
<path d="M0.00012207 333.437V439.996H108.96C95.5904 387.682 53.4772 346.541 0.00012207 333.437Z" fill="#FC6243"/>
<path d="M225.026 366.684V293.334H149.983V366.684H225.026Z" fill="#3F6FD5"/>
<path d="M299.859 439.238V365.888H224.815V439.238H299.859Z" fill="#FC6243"/>
</svg>
