<svg width="300" height="440" viewBox="0 0 300 440" fill="none" xmlns="http://www.w3.org/2000/svg">
<path d="M150.211 146.668H0.422058V0H0.808728C83.3104 0 150.211 65.6762 150.211 146.668Z" fill="#A587F4"/>
<path d="M300 0H150.211V146.668H300V0Z" fill="white"/>
<path d="M150.211 146.666H0.422058V293.334H150.211V146.666Z" fill="#FC6243"/>
<path d="M299.613 146.666H300V293.334H150.211C150.211 212.377 217.147 146.666 299.613 146.666Z" fill="#E9A650" fill-opacity="0.3"/>
<path d="M150.211 293.332H0.422058V440H150.211V293.332Z" fill="#3F6FD5"/>
<path d="M150.211 293.332H300C300 374.289 233.064 440 150.597 440H150.211V293.332Z" fill="#E9A650" fill-opacity="0.3"/>
<path d="M45.0105 179.469C45.0105 184.712 40.6537 188.989 35.3129 188.989C29.972 188.989 25.615 184.747 25.615 179.469C25.615 174.191 29.972 169.983 35.3129 169.983C40.6537 169.983 45.0105 174.226 45.0105 179.469Z" fill="white"/>
<path d="M85.032 179.469C85.032 184.712 80.675 188.989 75.3342 188.989C69.9933 188.989 65.6365 184.747 65.6365 179.469C65.6365 174.191 69.9933 169.983 75.3342 169.983C80.675 169.983 85.032 174.226 85.032 179.469Z" fill="white"/>
<path d="M45.0105 219.999C45.0105 225.242 40.6537 229.52 35.3129 229.52C29.972 229.52 25.615 225.277 25.615 219.999C25.615 214.722 29.972 210.513 35.3129 210.513C40.6537 210.513 45.0105 214.756 45.0105 219.999Z" fill="white"/>
<path d="M85.032 219.999C85.032 225.242 80.675 229.52 75.3342 229.52C69.9933 229.52 65.6365 225.277 65.6365 219.999C65.6365 214.722 69.9933 210.513 75.3342 210.513C80.675 210.513 85.032 214.756 85.032 219.999Z" fill="white"/>
<path d="M124.455 179.469C124.455 184.712 120.098 188.989 114.757 188.989C109.416 188.989 105.059 184.747 105.059 179.469C105.059 174.191 109.416 169.983 114.757 169.983C120.098 169.983 124.455 174.226 124.455 179.469Z" fill="white"/>
<path d="M124.455 219.999C124.455 225.242 120.098 229.52 114.757 229.52C109.416 229.52 105.059 225.277 105.059 219.999C105.059 214.722 109.416 210.513 114.757 210.513C120.098 210.513 124.455 214.756 124.455 219.999Z" fill="white"/>
<path d="M45.0105 259.809C45.0105 265.052 40.6537 269.295 35.3129 269.295C29.972 269.295 25.615 265.052 25.615 259.809C25.615 254.566 29.972 250.289 35.3129 250.289C40.6537 250.289 45.0105 254.532 45.0105 259.809Z" fill="white"/>
<path d="M85.032 259.809C85.032 265.052 80.675 269.295 75.3342 269.295C69.9933 269.295 65.6365 265.052 65.6365 259.809C65.6365 254.566 69.9933 250.289 75.3342 250.289C80.675 250.289 85.032 254.532 85.032 259.809Z" fill="white"/>
<path d="M124.455 259.809C124.455 265.052 120.098 269.295 114.757 269.295C109.416 269.295 105.059 265.052 105.059 259.809C105.059 254.566 109.416 250.289 114.757 250.289C120.098 250.289 124.455 254.532 124.455 259.809Z" fill="white"/>
<path d="M116.9 328.001H35.909V407.302H116.9V328.001Z" fill="white"/>
<path d="M241.075 108.79H0V121.208H241.075V108.79Z" fill="white"/>
<path d="M241.075 66.4006H0V78.8184H241.075V66.4006Z" fill="white"/>
<path d="M241.075 24.8329H0V37.2507H241.075V24.8329Z" fill="white"/>
<path d="M191.181 293.337H300V186.785C246.592 199.859 204.533 241.044 191.181 293.337Z" fill="#FC6243"/>
<path d="M255.868 293.332H150.211V397.78C201.827 384.086 242.375 344.073 255.868 293.332Z" fill="white"/>
<path d="M225.123 73.2993H150.211V146.668H225.123V73.2993Z" fill="#3F6FD5"/>
<path d="M299.192 0.134766H224.28V73.5031H299.192V0.134766Z" fill="#FC6243"/>
</svg>
